<svg id="Layer_21" data-name="Layer 21" xmlns="http://www.w3.org/2000/svg" width="24" height="24" viewBox="0 0 24 24"><title>038_012</title><path d="M15.44043,10.61016a4.21743,4.21743,0,0,1-.78174-3.24687c.13477-1.30322.83075-1.73523,1.39893-1.75342.69794-.0224,1.20459.667,1.28955,1.68164A6.4598,6.4598,0,0,1,16.99034,9.803a2.65315,2.65315,0,0,0,2.74619.79349,10.89278,10.89278,0,0,0,.59989-3.55495,4.15391,4.15391,0,0,0-4.149-4.38164h-.03857a4.48142,4.48142,0,0,0-4.37451,4.39385,6.98576,6.98576,0,0,0,1.58806,5.4652,4.9486,4.9486,0,0,0,1.90035,1.42963,14.67116,14.67116,0,0,1-3.3015,4.41162C8.3333,15.23418,6.96631,6.74414,6.916,5.5H3.9165c0,.11572.97168,12.13232,7.062,15.78613a1.75642,1.75642,0,0,0,1.56055-.01025,16.9501,16.9501,0,0,0,5.743-6.89741,14.85275,14.85275,0,0,0,2.00946-.23682V11.95847C17.5,12.60625,16.34082,11.60869,15.44043,10.61016Z"/></svg>