<svg id="Layer_21" data-name="Layer 21" xmlns="http://www.w3.org/2000/svg" width="24" height="24" viewBox="0 0 24 24"><title>038_014</title><path d="M9,12a1.25,1.25,0,1,0,1.25,1.25A1.25,1.25,0,0,0,9,12Z"/><path d="M14.75,12A1.25,1.25,0,1,0,16,13.25,1.25,1.25,0,0,0,14.75,12Z"/><path d="M22.67432,11.83936A2.9707,2.9707,0,0,0,17.80438,9.5365,11.20125,11.20125,0,0,0,12,8,11.20816,11.20816,0,0,0,6.20868,9.528a2.97813,2.97813,0,1,0-3.2085,4.975C3.00238,18.09143,7.03076,21,12,21c4.96283,0,8.98627-2.90125,8.99884-6.48346A2.97537,2.97537,0,0,0,22.67432,11.83936ZM4.33936,10.3501a1.4775,1.4775,0,0,1,.59308.13385,6.011,6.011,0,0,0-1.638,2.3927,1.46893,1.46893,0,0,1-.44434-1.03729A1.4908,1.4908,0,0,1,4.33936,10.3501ZM12,19.5c-4.06543,0-7.5-2.28973-7.5-5s3.43457-5,7.5-5,7.5,2.28973,7.5,5S16.06543,19.5,12,19.5Zm8.71161-6.60651a6.00073,6.00073,0,0,0-1.637-2.40271,1.47185,1.47185,0,0,1,1.637,2.40271Z"/><path d="M12,18.04248a5.92408,5.92408,0,0,1-3.23389-.9248.50013.50013,0,0,1,.55078-.835,5.26716,5.26716,0,0,0,5.36621,0,.50013.50013,0,0,1,.55078.835A5.92408,5.92408,0,0,1,12,18.04248Z"/><path d="M17.8501,3.5a2.23718,2.23718,0,0,0-1.74408.84607L12.69141,3.27686l-.22412.71631A39.57133,39.57133,0,0,0,11.0415,8.7915h.88477l.60205.13623c.05322-.23633.66162-2.21191,1.147-3.771l1.92578.60321A2.24952,2.24952,0,1,0,17.8501,3.5Zm0,3a.75.75,0,1,1,.75-.75A.75082.75082,0,0,1,17.8501,6.5Z"/></svg>