<svg id="Layer_21" data-name="Layer 21" xmlns="http://www.w3.org/2000/svg" width="24" height="24" viewBox="0 0 24 24"><title>038_032</title><path d="M8.41315,12.55426a3.19894,3.19894,0,0,0-2.4389,3.77838A3.1989,3.1989,0,0,0,10.08118,18.165a3.199,3.199,0,0,0,2.439-3.77838A3.199,3.199,0,0,0,8.41315,12.55426Zm.074,4.33948a1.11249,1.11249,0,0,1-1.44446-.56451A1.1125,1.1125,0,0,1,7.93109,15.058a1.11257,1.11257,0,0,1,1.44452.56445A1.11258,1.11258,0,0,1,8.48718,16.89374Zm1.6106-1.71967a.38106.38106,0,1,1-.21472-.70892.381.381,0,1,1,.21472.70892Z"/><path d="M16.79175,11.39026a2.62764,2.62764,0,0,0,.12231-2.715c-.77966-1.00891-2.78973-.82544-4.99719.278a.25539.25539,0,0,1-.34607-.32574c.42548-1.12085.4314-2.06958-.08551-2.61176C10.36914,4.84515,7.2475,6.0097,4.513,8.61694,2.12671,10.89215.82471,13.51355,1.27325,14.92236c-.00275.112-.01166.22028-.00323.33893.22943,3.23694,4.57544,5.56616,9.70715,5.20245s8.87634-3.27441,8.87634-6.51947C19.85352,12.74115,18.65027,11.889,16.79175,11.39026Zm-6.67023,7.77368c-3.47644.2464-6.42694-1.41992-6.59-3.72174s2.52283-4.36761,5.99927-4.614,6.42694,1.41992,6.59009,3.72174S13.598,18.91754,10.12152,19.16394Z"/><path d="M18.96045,9.50781a.76.76,0,0,0,.11426.00879.74974.74974,0,0,0,.74023-.63672,3.00236,3.00236,0,0,0-3.42578-3.42236.75027.75027,0,0,0,.23242,1.48242A1.52849,1.52849,0,0,1,18.3501,8.42236a1.56289,1.56289,0,0,1-.01758.231A.74908.74908,0,0,0,18.96045,9.50781Z"/><path d="M16.8501,2.67236a5.85424,5.85424,0,0,0-1.0083.08789.75018.75018,0,0,0,.26074,1.47754,4.30188,4.30188,0,0,1,.74756-.06543,4.25458,4.25458,0,0,1,4.12109,5.29395.74987.74987,0,1,0,1.4541.36719,5.75366,5.75366,0,0,0-5.5752-7.16113Z"/></svg>