<svg id="Layer_21" data-name="Layer 21" xmlns="http://www.w3.org/2000/svg" width="24" height="24" viewBox="0 0 24 24"><title>038_007</title><path d="M12,3a9,9,0,1,0,9,9A9,9,0,0,0,12,3Zm7.49371,8.87585a14.09891,14.09891,0,0,0-3.35864-.433,11.47269,11.47269,0,0,0-1.71222.12549c-.04474.00677-.08685.02069-.13141.028q-.2829-.67859-.59753-1.33984a11.35925,11.35925,0,0,0,4.12775-2.97571A7.46025,7.46025,0,0,1,19.49371,11.87585Zm-2.765-5.69037a9.914,9.914,0,0,1-3.7196,2.71936,29.81013,29.81013,0,0,0-2.75708-4.19073,7.41626,7.41626,0,0,1,6.47668,1.47137ZM8.74487,5.25366a28.38427,28.38427,0,0,1,2.82825,4.17578A22.86759,22.86759,0,0,1,5,10.2666c-.09784,0-.19086-.00793-.28687-.01093A7.51853,7.51853,0,0,1,8.74487,5.25366ZM4.5,12c0-.08533.00995-.16809.01282-.25275.16229.00665.32129.01935.48718.01935a24.12744,24.12744,0,0,0,7.27618-.9834c.18518.38342.36011.77258.52832,1.16534a12.09316,12.09316,0,0,0-6.45166,4.97119A7.46076,7.46076,0,0,1,4.5,12Zm2.95886,5.955a10.70241,10.70241,0,0,1,5.90149-4.613,28.08482,28.08482,0,0,1,1.40717,5.62244A7.43565,7.43565,0,0,1,7.45886,17.955Zm8.71594.27191a29.73461,29.73461,0,0,0-1.32831-5.191,10.25476,10.25476,0,0,1,1.32959-.08478,12.62957,12.62957,0,0,1,3.18964.43829A7.51246,7.51246,0,0,1,16.1748,18.22687Z"/></svg>