<svg id="Layer_21" data-name="Layer 21" xmlns="http://www.w3.org/2000/svg" width="24" height="24" viewBox="0 0 24 24"><title>038_020</title><path d="M22,14.01581c0-4.18774-2.60071-5.04962-4.48437-5.04962a4.31726,4.31726,0,0,0-4.5722,4.6358c0,3.77441,2.06238,5.015,4.752,5.015a4.125,4.125,0,0,0,4.1969-2.92963H19.30939a1.616,1.616,0,0,1-1.614.99945,2.0543,2.0543,0,0,1-2.24219-2.19H22ZM15.52533,13c.14325-1.20642.77148-2.05194,1.95477-2.05194A2.01574,2.01574,0,0,1,19.41705,13Z"/><rect x="15" y="6.58563" width="5" height="1.41437"/><path d="M10.30621,11.70648A2.47235,2.47235,0,0,0,11.823,9.17316c0-1.27527-.77545-3.17072-3.80908-3.17072H2V18.37585H7.23846c2.53333,0,3.20538-.43091,3.91254-1.12a3.59626,3.59626,0,0,0,1.06879-2.551A2.88541,2.88541,0,0,0,10.30621,11.70648ZM4.5,8H8a1.5,1.5,0,0,1,0,3H4.5Zm3.75,8H4.5V13H8.25a1.5,1.5,0,0,1,0,3Z"/></svg>