<svg id="Layer_21" data-name="Layer 21" xmlns="http://www.w3.org/2000/svg" width="24" height="24" viewBox="0 0 24 24"><title>038_022</title><path d="M2.25,12.15a.75.75,0,0,0-.75.75v2.45a.75.75,0,0,0,1.5,0V12.9A.75.75,0,0,0,2.25,12.15Z"/><path d="M5.25,10.5a.75.75,0,0,0-.75.75v5a.75.75,0,0,0,1.5,0v-5A.75.75,0,0,0,5.25,10.5Z"/><path d="M8.25,8a.75.75,0,0,0-.75.75v7.5a.75.75,0,0,0,1.5,0V8.75A.75.75,0,0,0,8.25,8Z"/><path d="M11.25,6a.75.75,0,0,0-.75.75v9.5a.75.75,0,0,0,1.5,0V6.75A.75.75,0,0,0,11.25,6Z"/><path d="M19.60529,11.21051a2.86507,2.86507,0,0,0-.78.11987,4.58148,4.58148,0,0,0,.201-1.27777A4.6316,4.6316,0,0,0,14.39471,5.421,4.12318,4.12318,0,0,0,13.5,5.53229V17h6.10529a2.89474,2.89474,0,0,0,0-5.78949Z"/></svg>