<svg id="Layer_21" data-name="Layer 21" xmlns="http://www.w3.org/2000/svg" width="24" height="24" viewBox="0 0 24 24"><title>038_033</title><path d="M8.41918,10.507a6.285,6.285,0,0,0,3.557,5.49809,5.68941,5.68941,0,0,0-3.557-9.34606Z"/><path d="M7.6419,13.74474A7.881,7.881,0,0,1,4.56754,17.09a5.67464,5.67464,0,0,0,6.15682.00493A7.88183,7.88183,0,0,1,7.6419,13.74474Z"/><path d="M6.86463,10.507V6.66161A5.6894,5.6894,0,0,0,3.31889,15.9997,6.28487,6.28487,0,0,0,6.86463,10.507Z"/><path d="M17.06918,10.507a6.285,6.285,0,0,0,3.557,5.49809,5.68941,5.68941,0,0,0-3.557-9.34606Z"/><path d="M16.2919,13.74474A7.881,7.881,0,0,1,13.21754,17.09a5.67464,5.67464,0,0,0,6.15682.00493A7.88183,7.88183,0,0,1,16.2919,13.74474Z"/><path d="M15.51463,10.507V6.66161a5.6894,5.6894,0,0,0-3.54574,9.33809A6.28487,6.28487,0,0,0,15.51463,10.507Z"/></svg>