<svg id="Layer_21" data-name="Layer 21" xmlns="http://www.w3.org/2000/svg" width="24" height="24" viewBox="0 0 24 24"><title>038_021</title><path d="M12,3C6.58331,3,2,11.12287,2,15.6476,2,17.22637,6,20,12,20s10-2.81626,10-4.3524C22,11.12287,17.58331,3,12,3Zm0,15.46386c-5.1123,0-8.14539-2.1542-8.49933-2.90589a8.14778,8.14778,0,0,1,.80478-3.19336c.91794-1.83349,2.35918-2.77625,3.02786-2.77625,1.02087,0,1.77087,2.0055,2.70837,2.0055,1.70831,0,3.35413-4.459,4.60413-4.459,1.3125,0,5.08335,4.48041,5.7417,7.72333a3.25822,3.25822,0,0,1,.11157.68819C20.12067,16.307,17.0658,18.46386,12,18.46386Z"/></svg>