<svg id="Layer_21" data-name="Layer 21" xmlns="http://www.w3.org/2000/svg" width="24" height="24" viewBox="0 0 24 24"><title>038_025</title><path d="M21,12a8.97194,8.97194,0,0,0-3.11981-6.80365,15.05516,15.05516,0,0,0-3.728,2.7879c.03284.03467.06537.06366.09821.09906,2.7901,3.011,5.33295,7.29913,4.90955,9.35388A8.94861,8.94861,0,0,0,21,12Z"/><path d="M12.44354,5.96655A9.65832,9.65832,0,0,1,16.884,4.44714,8.96422,8.96422,0,0,0,7.57214,4.17c.493.42548,2.1275.58545,4.11328,1.79962A.72255.72255,0,0,0,12.44354,5.96655Z"/><path d="M9.875,8.08331c.03455-.03668.06946-.06793.10406-.10394A21.35438,21.35438,0,0,0,7.04968,5.60724a1.39216,1.39216,0,0,0-1.12683-.23187,8.98253,8.98253,0,0,0-.86279,12.3548C4.28668,15.8197,6.91809,11.2262,9.875,8.08331Z"/><path d="M12.06287,9.89581l-.00018-.00018-.00019.00018C9.09137,12.5257,4.9549,16.44537,5.58887,18.312a8.979,8.979,0,0,0,13.0321-.23083C18.98535,16.117,15.05432,12.57874,12.06287,9.89581Z"/></svg>