<svg id="Layer_21" data-name="Layer 21" xmlns="http://www.w3.org/2000/svg" width="24" height="24" viewBox="0 0 24 24"><title>038_019</title><path d="M12,12A5,5,0,1,0,7,7,5,5,0,0,0,12,12Zm0-7a2,2,0,1,1-2,2A2.00225,2.00225,0,0,1,12,5Z"/><path d="M13.8288,16.049a9.33918,9.33918,0,0,0,3.14972-1.2243,1.39994,1.39994,0,1,0-1.48437-2.374,6.71562,6.71562,0,0,1-6.88281.064A1.40038,1.40038,0,0,0,7.16992,14.916a9.34977,9.34977,0,0,0,3.00079,1.13348L7.00977,19.21045a1.40006,1.40006,0,1,0,1.98047,1.97949L12,18.18018l3.00977,3.00977a1.40006,1.40006,0,1,0,1.98047-1.97949Z"/></svg>