<svg id="Layer_21" data-name="Layer 21" xmlns="http://www.w3.org/2000/svg" width="24" height="24" viewBox="0 0 24 24"><title>038_034</title><circle cx="8.17665" cy="7.13186" r="1.63874"/><circle cx="15.82411" cy="7.13186" r="1.63874"/><path d="M21.82714,16.37608,19.351,12.41544a1.10992,1.10992,0,0,0-1.8823,1.17668l.25329.40519a7.73453,7.73453,0,0,1-11.456.006l.25708-.41121a1.10992,1.10992,0,0,0-1.8823-1.17668L2.16456,16.37608a1.10992,1.10992,0,0,0,1.8823,1.17668l1.00732-1.61113a9.95508,9.95508,0,0,0,13.88007-.00524l1.01057,1.61637a1.10992,1.10992,0,0,0,1.8823-1.17668Z"/></svg>